<svg width="52" height="52" viewBox="0 0 52 52" fill="none" xmlns="http://www.w3.org/2000/svg">
<path d="M51.1733 4.19495C51.1599 4.70917 50.9991 5.17396 50.8516 5.62994C50.4227 7.01129 49.6586 8.19146 48.6398 9.22412C46.093 11.7588 43.5595 14.3069 41.0126 16.8416C40.7847 17.0696 40.7043 17.2708 40.7847 17.5792C41.7633 21.5355 42.7284 25.4918 43.6935 29.4481C43.7761 29.9674 43.801 30 43.8432 30.1685C44.21 31.6359 43.8432 30.1685 44.21 31.636C44.6007 33.2102 44.5769 33.1034 44.5769 33.1034C45.3106 36.0382 45.3238 36.0918 45.3106 36.0382C45.7796 37.9337 45.5166 36.9181 45.6238 37.3204C46.1734 39.4796 46.7096 41.6254 47.1921 43.798C47.5138 45.2464 47.4213 46.8034 46.7779 48.1445C46.3001 49.1396 45.3818 50.8225 44.9167 51.6658C44.7922 51.8916 44.4603 51.8966 44.3369 51.6703C40.8786 45.2464 37.4202 38.8091 33.9484 32.3851C33.7875 32.0767 33.5597 31.795 33.3318 31.5536C32.2996 30.5076 31.2541 29.4615 30.2085 28.4289C30.0879 28.3082 29.9672 28.2009 29.8332 28.0668C29.6857 28.2009 29.5517 28.335 29.4176 28.4557C27.541 30.2796 25.6912 32.1571 23.7475 33.9274C22.8092 34.7723 21.6966 35.416 20.651 36.1268C20.3695 36.3146 20.2757 36.4621 20.3695 36.7974C20.9459 39.0639 21.5089 41.3303 22.0183 43.6102C22.3936 45.2732 22.0451 46.8289 20.9191 48.1164C20.3755 48.7406 19.6607 49.5202 19.0452 50.094C18.6252 50.4856 17.9953 50.3331 17.7228 49.8277C16.0804 46.7806 14.437 43.7135 12.7825 40.6464C12.054 41.3855 11.3406 42.1092 10.6311 42.8293C10.2538 43.2122 9.61159 43.1846 9.24204 42.7942C8.89128 42.4236 8.92777 41.8653 9.29014 41.5061C9.99846 40.804 10.7421 40.0624 11.5091 39.3053C8.54071 37.7114 3.13229 34.794 1.62633 33.9815C1.41412 33.867 1.35404 33.5901 1.5227 33.4178C2.15271 32.7741 2.79613 32.1303 3.43955 31.5C4.92746 30.0248 6.71027 29.5554 8.73436 30.0516C10.9059 30.5746 13.0775 31.1111 15.249 31.6609C15.5707 31.7414 15.7316 31.6878 15.8924 31.4061C16.9648 29.542 18.3052 27.879 19.8334 26.3635C21.214 24.9956 22.5813 23.6277 24.096 22.1122C23.8279 21.911 22.0193 20.1111 21.8316 19.8965C19.7941 17.5093 18.7744 17.4988 15.9996 16.0638C10.7719 13.3682 5.63791 10.5116 0.45033 7.73548C0.169528 7.58421 0.169409 7.18978 0.449938 7.038C1.63182 6.39855 4.21107 5.07719 5.85238 4.78503C6.87112 4.61069 7.88988 4.70457 8.88182 4.95938C10.8389 5.44218 12.8094 5.92498 14.7664 6.42119C15.1015 6.50166 14.7156 6.4083 15.962 6.68966C17.4295 7.05652 16.6109 6.85933 17.4295 7.05652C19.9138 7.65502 19.9138 7.65502 19.9138 7.65502C23.2279 8.47072 19.9138 7.65502 22.2194 8.21829C23.2247 8.4731 24.163 8.70108 25.1148 8.92907C28.2112 9.69351 31.3077 10.4445 34.4041 11.209C34.7259 11.2894 34.9537 11.2358 35.195 10.9944C37.6883 8.4731 40.2083 5.97863 42.7016 3.45734C44.0555 2.0894 45.6372 1.15062 47.5675 0.868987C47.6077 0.868987 47.6077 0.868989 47.8087 0.842167C48.412 0.815345 48.6666 0.815344 49.2162 0.828755C49.4709 0.855577 49.4843 0.855577 49.5782 0.882399C51.0661 1.21768 50.7712 0.936045 51.1063 2.38445C51.1733 3.09984 51.1924 3.46189 51.1733 4.19495Z" fill="#055FB3"/>
</svg>
