<svg width="33" height="33" viewBox="0 0 33 33" fill="none" xmlns="http://www.w3.org/2000/svg">
<g clip-path="url(#clip0_1533_2840)">
<path d="M3.95341 32.6938C3.05037 32.3004 2.78393 31.7407 3.04143 30.7697C3.33469 29.6663 4.28959 28.8706 5.43224 28.8098C5.97228 28.7812 6.51411 28.7866 7.05593 28.7991C7.27051 28.8044 7.3635 28.7401 7.41893 28.5255C7.66928 27.5706 7.93751 26.621 8.20574 25.6715C8.32197 25.2584 8.71001 25.1154 8.98897 25.3729C9.166 25.5356 9.16064 25.7323 9.09984 25.9487C8.83876 26.8768 8.58484 27.8084 8.32019 28.7687C10.4678 28.7687 12.5922 28.7687 14.7505 28.7687C14.6933 28.563 14.6379 28.3771 14.5932 28.1893C14.5163 27.8746 14.6307 27.6421 14.8954 27.5616C15.1708 27.4776 15.4032 27.6224 15.5034 27.9443C15.5463 28.0838 15.6053 28.2233 15.616 28.3645C15.6464 28.7436 15.8503 28.8241 16.199 28.8026C16.6764 28.774 17.1575 28.7812 17.6349 28.8098C19.0029 28.8867 20.0651 29.9739 20.1223 31.3455C20.1527 32.0482 19.7593 32.4595 19.1388 32.6956C14.0746 32.6938 9.014 32.6938 3.95341 32.6938ZM11.5139 31.7567C12.7209 31.7567 13.9298 31.7567 15.1368 31.7567C16.3438 31.7567 17.5526 31.7585 18.7597 31.755C19.0923 31.755 19.2407 31.6083 19.171 31.2918C19.1102 31.0129 19.0261 30.7196 18.8741 30.4836C18.5111 29.9167 17.9514 29.7254 17.2916 29.7271C13.4595 29.7343 9.62914 29.7307 5.79704 29.7307C5.70405 29.7307 5.60928 29.7307 5.51629 29.7379C4.70802 29.7897 4.0911 30.328 3.92122 31.1219C3.81751 31.6083 3.93374 31.7567 4.42191 31.7567C6.7877 31.7567 9.14991 31.7567 11.5139 31.7567Z" fill="#055FB3"/>
<path d="M18.6846 9.82628C18.8151 8.93218 19.2622 8.3081 20.1062 8.02735C21.1988 7.66256 22.3897 8.32241 22.6812 9.42751C22.9799 10.5559 22.2717 11.7164 21.1255 11.9328C20.8787 11.9793 20.8358 12.0794 20.8197 12.294C20.6927 13.8497 20.5568 15.4055 20.4102 16.9594C20.3905 17.1597 20.4442 17.2866 20.5801 17.4225C22.05 18.8835 23.5127 20.3498 24.9773 21.8143C25.6282 22.467 25.5924 23.168 24.8825 23.7671C22.2985 25.9415 19.314 26.9518 15.9451 26.8141C10.146 26.5781 5.09073 22.1791 4.07683 16.473C3.36691 12.4746 4.32181 8.90357 6.92363 5.78138C7.50837 5.0804 8.20935 5.05179 8.85489 5.69554C10.3141 7.15292 11.7732 8.60852 13.2252 10.0713C13.3665 10.2143 13.5024 10.2876 13.7134 10.268C15.3621 10.116 17.0109 9.9747 18.6846 9.82628ZM14.4162 11.146C15.1529 11.8863 15.8879 12.6266 16.6389 13.383C17.3667 12.6534 18.1177 11.9042 18.8598 11.146C18.9135 11.0905 18.9421 10.9493 18.9099 10.8867C18.8759 10.8223 18.749 10.7687 18.6667 10.774C18.2 10.8026 17.7333 10.8491 17.2666 10.8903C16.3063 10.9761 15.346 11.0619 14.4162 11.146ZM19.7575 11.7039C18.8992 12.5586 18.1088 13.349 17.3703 14.0858C18.0748 14.7903 18.8044 15.5199 19.5286 16.2423C19.5304 16.2334 19.5483 16.1833 19.5519 16.1332C19.6699 14.7545 19.7933 13.3776 19.897 11.9989C19.9042 11.8952 19.7951 11.7808 19.7575 11.7039ZM19.6359 9.94788C19.6323 10.5523 20.1098 11.0387 20.7142 11.044C21.3115 11.0494 21.8104 10.5612 21.8157 9.96576C21.8211 9.37029 21.3311 8.87675 20.7303 8.87317C20.1241 8.86781 19.6395 9.34346 19.6359 9.94788Z" fill="#055FB3"/>
<path d="M21.138 0.711914C25.5315 0.756619 29.133 3.79834 29.8643 8.10611C29.9698 8.7284 29.9716 9.36857 29.9967 10.0016C30.011 10.3574 29.8018 10.5774 29.5174 10.572C29.2331 10.5649 29.0614 10.3485 29.0668 9.98193C29.1026 7.61078 28.3623 5.54183 26.6438 3.87523C25.0809 2.36063 23.1783 1.67039 21.0181 1.64714C20.8822 1.64535 20.7481 1.65608 20.6122 1.64893C20.3404 1.63462 20.1509 1.45223 20.1419 1.20367C20.133 0.956897 20.31 0.758406 20.5782 0.719066C20.5979 0.715489 20.6194 0.71549 20.6408 0.71549C20.8036 0.711913 20.9716 0.711914 21.138 0.711914Z" fill="#055FB3"/>
<path d="M20.9806 3.07595C24.8217 3.13496 27.7847 6.27682 27.6363 10.1322C27.6238 10.4701 27.4414 10.6704 27.1535 10.6615C26.8709 10.6525 26.6939 10.4487 26.701 10.1036C26.7332 8.73917 26.3988 7.47849 25.5799 6.37875C24.4372 4.84269 22.885 4.07377 20.977 4.01118C20.8215 4.00581 20.6641 4.02012 20.5085 4.0076C20.2224 3.98793 20.0329 3.78229 20.0418 3.523C20.0507 3.27086 20.2314 3.09383 20.5121 3.07774C20.6677 3.0688 20.825 3.07595 20.9806 3.07595Z" fill="#055FB3"/>
<path d="M20.9037 5.43983C23.4197 5.55964 25.3545 7.63216 25.2758 10.2089C25.2669 10.4933 25.1739 10.7007 24.8789 10.7579C24.5784 10.8169 24.3656 10.5845 24.3335 10.2286C24.2923 9.79587 24.2816 9.34883 24.16 8.93754C23.704 7.38717 22.3164 6.39472 20.6355 6.36611C20.5425 6.36432 20.4459 6.37327 20.3547 6.35717C20.0954 6.31247 19.9399 6.16047 19.947 5.88866C19.9542 5.62043 20.1062 5.46665 20.3726 5.44161C20.5192 5.4291 20.6659 5.43983 20.9037 5.43983Z" fill="#055FB3"/>
</g>
<defs>
<clipPath id="clip0_1533_2840">
<rect width="32.1" height="32.1" fill="white" transform="translate(0.380005 0.711914)"/>
</clipPath>
</defs>
</svg>
