<svg width="56" height="55" viewBox="0 0 56 55" fill="none" xmlns="http://www.w3.org/2000/svg">
<path d="M45.242 36.3864L13.969 30.9709C13.4257 30.8776 12.908 31.234 12.812 31.7674C12.7163 32.3011 13.0788 32.81 13.622 32.9047L45.136 38.3625C46.318 38.5664 47.3444 39.2807 47.9319 40.3085C48.5195 41.3362 48.6061 42.5688 48.168 43.6661C47.4356 45.4313 45.5358 46.4428 43.63 46.0822L12.23 40.645C12.1722 40.6349 12.1137 40.6297 12.055 40.6293C11.5343 40.6271 11.0991 41.0177 11.0544 41.5272C11.0097 42.0367 11.3706 42.4946 11.884 42.5798L43.4 48.0347C45.1034 48.3274 46.8526 47.8852 48.2004 46.8212C49.5481 45.7572 50.3639 44.1744 50.439 42.4777C50.5056 39.4551 48.2838 36.8509 45.242 36.3864Z" fill="#055FB3"/>
<path d="M9.87892 48.1308C9.577 48.649 9.53137 49.2738 9.75493 49.829C10.1544 50.7118 11.1231 51.2053 12.0879 51.0174L30.5879 47.8117L19.0479 45.813L11.2739 47.1674C10.6853 47.2668 10.1733 47.6205 9.87892 48.1308Z" fill="#055FB3"/>
<path d="M9.10496 41.0978C9.31905 39.8674 10.3085 38.9082 11.564 38.7141L12.322 34.4909C11.2203 33.8789 10.6282 32.6538 10.842 31.4286L14.563 10.6995L5.25396 12.3112C3.63538 12.5299 2.17719 13.3863 1.2151 14.6833C0.253001 15.9802 -0.13011 17.6059 0.153961 19.1862L4.79996 45.0686C5.79327 43.5051 7.29668 42.3183 9.06496 41.7018C9.05744 41.4996 9.07084 41.2972 9.10496 41.0978Z" fill="#055FB3"/>
<path d="M12.434 52.9522C12.1877 52.9947 11.9381 53.016 11.688 53.016C10.2509 53.0487 8.90729 52.3182 8.17248 51.1048C7.43767 49.8913 7.42563 48.3831 8.14099 47.1585C8.72977 46.1393 9.75237 45.4326 10.928 45.2325L13.306 44.818L11.538 44.5116C10.8662 44.3927 10.2566 44.05 9.81199 43.5413C7.25962 44.3522 5.55383 46.7148 5.61899 49.3487C5.68654 51.05 6.50637 52.6378 7.86399 53.6966C9.21102 54.7564 10.9566 55.1971 12.657 54.9066L42.1 49.8054L36.348 48.8124L12.434 52.9522Z" fill="#055FB3"/>
<path d="M46.3 42.9597C46.5231 42.4103 46.4822 41.7913 46.1887 41.2748C45.8952 40.7582 45.3803 40.3991 44.787 40.2971L14.259 35.0103L13.559 38.8789L43.973 44.1452C44.9353 44.3324 45.9015 43.8402 46.3 42.9597Z" fill="#055FB3"/>
<path d="M19.1239 24.8826L39.8059 28.4635H39.8069L41.5419 18.7913L20.8599 15.2104L19.1239 24.8826Z" fill="#055FB3"/>
<path d="M51.0379 5.49989L50.1379 10.5245C50.0536 10.9935 49.6388 11.3354 49.1539 11.3358C49.0956 11.3357 49.0374 11.3308 48.9799 11.321C48.7187 11.2758 48.4864 11.1304 48.3343 10.9169C48.1822 10.7034 48.1227 10.4393 48.1689 10.1827L49.0759 5.13846L19.5259 0.0195331C19.2696 -0.028708 19.0043 0.0292255 18.7929 0.179622C18.5679 0.325214 18.4138 0.555405 18.3669 0.816051L13.2999 29.0418C13.6358 28.9834 13.9794 28.9814 14.3159 29.036L43.8589 34.1519L47.1049 16.055C47.1576 15.7011 47.4019 15.4033 47.7428 15.2776C48.0837 15.1518 48.4673 15.218 48.7441 15.4504C49.0209 15.6827 49.1473 16.0445 49.0739 16.3948L45.8259 34.5035C48.0763 34.9498 50.0409 36.2851 51.2589 38.1964L55.9069 12.3032C55.9518 12.0469 55.9805 11.7881 55.9929 11.5283C56.0606 8.60042 53.9663 6.05235 51.0379 5.49989ZM43.5109 19.132L41.7739 28.8052C41.6052 29.7431 40.7757 30.4269 39.8059 30.4277C39.6896 30.428 39.5735 30.4182 39.4589 30.3982L18.7759 26.8124C18.2536 26.7216 17.7893 26.4308 17.4853 26.0038C17.1813 25.5769 17.0625 25.0488 17.1549 24.5358L18.8919 14.8646C19.0839 13.7968 20.1206 13.0837 21.2079 13.2716L41.8889 16.8535C42.9762 17.042 43.7022 18.0602 43.5109 19.1281V19.132ZM23.8719 9.74766C23.9679 9.21375 24.4862 8.85722 25.0299 8.95114L39.8029 11.5047C40.3167 11.59 40.6778 12.0485 40.6325 12.5584C40.5873 13.0682 40.151 13.4585 39.6299 13.4552C39.5712 13.4553 39.5126 13.4501 39.4549 13.4395L24.6829 10.885C24.1393 10.7907 23.7763 10.2816 23.8719 9.74766ZM44.4379 9.30471C44.3793 9.30468 44.3207 9.29976 44.2629 9.28998L21.6119 5.3673C21.1008 5.24349 20.7749 4.75162 20.8667 4.24246C20.9585 3.7333 21.4366 3.38126 21.9599 3.43739L44.6099 7.35516C45.1208 7.44305 45.4784 7.8999 45.4336 8.40735C45.3889 8.9148 44.9565 9.30443 44.4379 9.30471Z" fill="#055FB3"/>
</svg>
