<svg width="56" height="55" viewBox="0 0 56 55" fill="none" xmlns="http://www.w3.org/2000/svg">
<path d="M28.4912 46.7961C22.4377 46.8025 16.557 44.815 11.7894 41.1514V42.0101C11.7902 42.9747 12.2801 43.8757 13.0961 44.4127C17.6783 47.3191 23.0374 48.8205 28.4912 48.7259C33.945 48.8206 39.3041 47.3192 43.8863 44.4127C44.7022 43.8757 45.1922 42.9747 45.193 42.0101V41.1514C40.4254 44.815 34.5447 46.8026 28.4912 46.7961Z" fill="#055FB3"/>
<path d="M29.9944 38.7006C29.0572 39.2016 27.9252 39.2016 26.9881 38.7006L11.7894 30.4409V38.6427C21.321 46.941 35.6613 46.941 45.193 38.6427V30.4409L29.9944 38.7006Z" fill="#055FB3"/>
<path d="M29.2478 19.8171C28.9967 19.7896 28.744 19.7767 28.4914 19.7785C26.2415 19.7785 24.5615 20.8013 24.5615 21.7083C24.5615 22.6154 26.2415 23.6382 28.4914 23.6382C28.8432 23.6375 29.1945 23.6117 29.5426 23.5609C31.2423 23.3101 32.4212 22.4706 32.4212 21.7083C32.4211 20.9074 31.1047 20.01 29.2478 19.8171Z" fill="#055FB3"/>
<path d="M55.4106 20.7242L29.0415 6.40489C28.6976 6.22474 28.2851 6.22474 27.9412 6.40489L1.57209 20.7242C1.2082 20.9228 0.982666 21.2996 0.982666 21.7084C0.982666 22.1173 1.20831 22.494 1.57209 22.6926L1.63104 22.7215C2.39601 22.0601 3.34943 21.6458 4.36224 21.5347L23.8345 19.3251C25.163 18.3128 26.8109 17.7903 28.4914 17.8488C31.7924 17.8488 34.3861 19.547 34.3861 21.7084C34.3861 23.8699 31.7924 25.5681 28.4914 25.5681C27.414 25.5788 26.3453 25.3787 25.3475 24.9795L9.16632 26.8225L27.9411 37.012C28.2841 37.1952 28.6984 37.1952 29.0414 37.012L55.4105 22.6926C55.7744 22.494 55.9999 22.1173 55.9999 21.7084C55.9999 21.2996 55.7744 20.9228 55.4106 20.7242Z" fill="#055FB3"/>
<path d="M23.0975 23.2908L4.79428 25.3653C4.30188 25.4237 3.9311 25.8335 3.92967 26.3206V35.3425C3.60964 35.2564 3.279 35.2142 2.94727 35.2171C2.61542 35.2142 2.28478 35.2564 1.96475 35.3425V26.3206C1.95797 24.8482 3.08727 23.6098 4.57805 23.4548L22.616 21.4092C22.6043 21.5084 22.5977 21.6083 22.5963 21.7083C22.5993 22.2731 22.7738 22.824 23.0975 23.2908Z" fill="#055FB3"/>
<path d="M2.94734 41.0066C4.03254 41.0066 4.91226 40.1426 4.91226 39.0768C4.91226 38.011 4.03254 37.147 2.94734 37.147C1.86215 37.147 0.982422 38.011 0.982422 39.0768C0.982422 40.1426 1.86215 41.0066 2.94734 41.0066Z" fill="#055FB3"/>
<path d="M2.94733 41.0066C4.57516 41.0066 5.89466 42.3026 5.89466 43.9013V47.761C5.89466 48.2939 5.45475 48.7258 4.91225 48.7258H0.982406C0.439797 48.7258 0 48.2938 0 47.761V43.9013C0 42.3025 1.31961 41.0066 2.94733 41.0066Z" fill="#055FB3"/>
</svg>
