<svg width="248" height="77" viewBox="0 0 248 77" fill="none" xmlns="http://www.w3.org/2000/svg">
<path d="M68.5289 11.6395L58.0739 0H10.4551L0 11.6395C0 11.6395 5.53503 21.3988 4.74431 31.6058C4.48074 35.7244 2.10858 43.514 2.63573 49.3337C3.5143 59.5407 11.2458 64.0174 17.8351 66.7035C21.7008 68.2256 29.6959 71.1802 34.2645 76.9105C38.7452 71.1802 46.8281 68.2256 50.6938 66.7035C57.1953 64.107 64.9268 59.5407 65.8932 49.3337C66.4203 43.514 64.0482 35.6349 63.7846 31.6058C62.9939 21.3988 68.5289 11.6395 68.5289 11.6395ZM62.3789 49.0651C61.8517 55.6012 57.8103 59.9884 49.4638 63.3907L48.761 63.6593C45.2467 65.0919 39.2723 67.4198 34.528 71.6279L34.2645 71.2698L34.0009 71.6279C29.2566 67.4198 23.2823 65.0919 19.768 63.6593L19.0651 63.3907C10.7186 59.9884 6.76503 55.6012 6.15003 49.0651C5.88646 45.7523 6.67718 41.5442 7.38004 37.7837C7.81933 35.5453 8.17076 33.5756 8.25861 31.8744C8.87362 23.7267 5.88646 16.0267 4.21716 12.2663L12.0365 3.58139H56.4924L64.3118 12.2663C62.5546 16.0267 59.6553 23.7267 60.2703 31.8744C60.3582 33.5756 60.7975 35.4558 61.1489 37.7837C61.8517 41.5442 62.6425 45.7523 62.3789 49.0651Z" fill="white"/>
<path d="M39.0965 25.0698L41.293 20.2349L27.2358 25.0698H39.0965Z" fill="white"/>
<path d="M12.3 46.558C12.4757 44.3197 13.0029 41.2755 13.4422 38.9476C13.8815 36.4406 14.3208 34.3813 14.4086 32.4115C14.5843 29.9045 14.2329 27.3976 13.9693 25.0697H23.6337L31.453 8.14757H14.145L9.48858 13.4301C11.1579 17.9069 13.1786 24.9801 12.6515 32.322C12.5636 34.2022 12.1243 36.2615 11.685 38.5894C11.07 41.9022 10.2793 45.9313 10.5429 48.6173C10.8064 52.0197 12.3 55.9592 20.8222 59.3615L21.5251 59.6301C22.0522 59.8092 22.5794 60.0778 23.1065 60.2569L29.8715 46.558H12.3Z" fill="white"/>
<path d="M47.0917 59.7198L47.7946 59.4512C56.3168 56.0488 57.8103 52.1093 58.0739 48.707C58.3375 46.0209 57.5468 41.9919 56.9318 38.6791C56.4925 36.2616 56.141 34.2919 55.9653 32.4116C55.4382 24.8907 57.371 17.907 59.0403 13.4302L54.3839 8.14768H39.7995L32.6831 19.0709L50.9574 11.2814L43.9288 25.0698H54.4718C54.2082 27.3977 53.8567 29.9942 54.0325 32.4116C54.2082 34.3814 54.5596 36.5302 54.9989 38.9477C55.4382 41.1861 55.9653 44.3198 56.141 46.5582H32.4195L24.3366 60.8837C27.2359 62.1372 30.8381 63.8384 34.1766 66.3454C38.921 62.943 43.9288 60.9733 47.0917 59.7198Z" fill="white"/>
<path d="M22.3158 32.5012C23.0187 31.7849 23.8973 31.4268 24.7758 31.4268C25.4787 31.4268 26.0058 31.6059 26.4451 31.964C26.8844 32.3222 27.148 32.8594 27.4116 33.6652H29.0809L30.0473 29.7256H28.378L28.1144 30.8896C27.4116 29.9942 26.3573 29.5466 24.8637 29.5466C23.1944 29.5466 21.7887 30.0838 20.3829 31.1582C19.0651 32.2326 18.1865 33.6652 17.7472 35.4559C17.6594 35.9931 17.5715 36.5303 17.5715 36.978C17.5715 38.0524 17.8351 38.9477 18.4501 39.7536C19.3287 40.828 20.5587 41.4547 22.3158 41.4547C23.6337 41.4547 24.8637 41.0966 26.0058 40.4698C27.0601 39.7536 28.0266 38.7687 28.7294 37.5152L26.9723 36.5303C25.918 38.4105 24.6001 39.3954 22.9308 39.3954C22.1401 39.3954 21.613 39.2163 21.1737 38.7687C20.7344 38.321 20.5587 37.6942 20.5587 36.8884C20.5587 36.4408 20.6465 35.9035 20.7344 35.4559C21.0858 34.2024 21.613 33.2175 22.3158 32.5012Z" fill="white"/>
<path d="M39.2724 34.2022L40.3267 29.7255H30.7502L29.6959 34.2022H31.5409L32.1559 31.5162H33.7373L31.8923 39.3057H30.3987L29.9595 41.1859H35.7581L36.1973 39.3057H34.6159L36.4609 31.5162H38.0424L37.4274 34.2022H39.2724Z" fill="white"/>
<path d="M45.3345 31.5162L45.6859 29.7255H40.7659L40.3266 31.5162H41.5566L39.7116 39.3057H38.4816L38.0423 41.186H47.0038L46.4767 43.5139H48.5852L49.5517 39.3057H48.4095L50.2545 31.5162H51.3967L51.836 29.7255H46.9159L46.4767 31.5162H47.4431L45.5981 39.3057H42.4352L44.2802 31.5162H45.3345Z" fill="white"/>
<path fill-rule="evenodd" clip-rule="evenodd" d="M91.3743 17.5377C89.5817 17.5377 88.4733 18.9093 88.4733 21.2053C88.4733 23.4846 89.585 24.8728 91.4039 24.8728C92.884 24.8728 93.9661 23.9485 94.5121 22.1892L96.3902 23.1003C95.5614 25.4857 93.7556 26.7811 91.2098 26.7811C88.0128 26.7811 85.661 24.4388 85.661 21.2483C85.661 18.0877 87.8812 15.7188 91.0355 15.7188C92.4268 15.7188 93.5057 16.1495 94.3082 17.0441V15.911H95.8903V19.5951H94.3082C93.5353 18.1771 92.634 17.5377 91.3743 17.5377Z" fill="white"/>
<path fill-rule="evenodd" clip-rule="evenodd" d="M100.67 17.5676V24.8264H101.808V26.5558H97.0153V24.8264H98.1533V17.5676H97.0153V15.911H107.478V17.5676H106.34V24.8264H107.478V26.5558H102.682V24.8264H103.824V17.5676H100.67Z" fill="white"/>
<path fill-rule="evenodd" clip-rule="evenodd" d="M115.027 23.0805H116.938V26.5558H108.04V24.8264H109.182V17.5676H108.04V15.911H116.938V19.2075H115.027V17.5676H111.698V20.1749H114.464V21.9209H111.698V24.8264H115.027V23.0805Z" fill="white"/>
<path fill-rule="evenodd" clip-rule="evenodd" d="M124.47 17.5676H123.332V15.911H128.127V17.5676H126.986V24.8265H128.127V28.7326H126.127V26.5559H117.661V24.8265H118.803V17.5676H117.661V15.911H122.457V17.5676H121.319V24.8265H124.47V17.5676Z" fill="white"/>
<path fill-rule="evenodd" clip-rule="evenodd" d="M128.838 26.5558V24.8264H129.976V17.5676H128.838V15.911H133.63V17.5676H132.492V22.6796L135.765 15.911H139.478V17.5676H138.337V24.8264H139.478V26.5558H134.682V24.8264H135.824V19.8635L132.551 26.5558H128.838Z" fill="white"/>
<path fill-rule="evenodd" clip-rule="evenodd" d="M141.419 24.8264L143.757 17.5676H142.32V15.911H149.378V17.5676H148.105L150.457 24.8264H151.418V26.5558H146.727V24.8264H147.852L147.273 22.8287H144.211L143.649 24.8264H144.82V26.5558H140.261V24.8264H141.419ZM146.908 21.4438L145.767 17.5079L144.612 21.4438H146.908Z" fill="white"/>
<path fill-rule="evenodd" clip-rule="evenodd" d="M155.937 21.2347C155.937 25.5119 154.812 26.7808 153.023 26.7808C152.503 26.7808 152.164 26.7046 151.839 26.6449V24.7499C152 24.8261 152.224 24.8691 152.654 24.8691C153.395 24.8691 153.868 24.3755 153.868 21.6356V17.5639H152.73V15.9073H162.334V17.5639H161.196V24.8228H162.334V26.5522H157.539V24.8228H158.677V17.5639H155.937V21.2347Z" fill="white"/>
<path fill-rule="evenodd" clip-rule="evenodd" d="M166.729 19.9662H168.34C170.725 19.9662 171.981 21.2649 171.981 23.2461C171.981 25.2141 170.738 26.5558 168.327 26.5558H163.074V24.8264H164.212V17.5676H163.074V15.911H167.87V17.5676H166.732V19.9662H166.729ZM167.439 24.8264C168.682 24.8264 169.261 24.2599 169.261 23.2461C169.261 22.2323 168.58 21.6956 167.439 21.6956H166.729V24.8264H167.439Z" fill="white"/>
<path fill-rule="evenodd" clip-rule="evenodd" d="M176.438 21.742V24.8264H177.576V26.5558H172.781V24.8264H173.922V17.5676H172.781V15.911H177.576V17.5676H176.438V20.0126H179.589V17.5676H178.448V15.911H183.247V17.5676H182.105V24.8264H183.247V26.5558H178.448V24.8264H179.589V21.742H176.438Z" fill="white"/>
<path fill-rule="evenodd" clip-rule="evenodd" d="M187.539 19.9662H189.151C191.535 19.9662 192.792 21.2649 192.792 23.2461C192.792 25.2141 191.548 26.5558 189.137 26.5558H183.885V24.8264H185.023V17.5676H183.885V15.911H188.68V17.5676H187.542V19.9662H187.539ZM188.249 24.8264C189.493 24.8264 190.072 24.2599 190.072 23.2461C190.072 22.2323 189.391 21.6956 188.249 21.6956H187.539V24.8264H188.249ZM196.979 24.8264H198.12V26.5558H193.324V24.8264H194.463V17.5676H193.324V15.911H198.12V17.5676H196.979V24.8264Z" fill="white"/>
<path fill-rule="evenodd" clip-rule="evenodd" d="M198.755 26.5556V24.8262H199.896V17.5674H198.755V15.9109H203.551V17.5674H202.412V22.6794L205.685 15.9109H209.399V17.5674H208.261V24.8262H209.399V26.5556H204.603V24.8262H205.741V19.8633L202.468 26.5556H198.755ZM203.182 12.5713C203.258 13.2704 203.685 13.6315 204.294 13.6315C204.902 13.6315 205.317 13.287 205.389 12.5713H206.882C206.882 13.8966 206.024 14.9865 204.291 14.9865C202.557 14.9865 201.699 13.8966 201.699 12.5713H203.182Z" fill="white"/>
<path fill-rule="evenodd" clip-rule="evenodd" d="M85.661 38.6305V34.4858H94.5713V38.6305H92.8544V36.1424H91.3743V43.4012H92.5123V45.1306H87.7168V43.4012H88.8581V36.1424H87.378V38.6305H85.661Z" fill="white"/>
<path fill-rule="evenodd" clip-rule="evenodd" d="M102.104 41.6553H104.011V45.1306H95.1174V43.4012H96.2587V36.1424H95.1174V34.4858H104.011V37.7823H102.104V36.1424H98.7749V38.7497H101.541V40.4957H98.7749V43.4012H102.104V41.6553Z" fill="white"/>
<path fill-rule="evenodd" clip-rule="evenodd" d="M104.62 43.4012H106.027L108.632 39.6442L106.218 36.1424H105.034V34.4858H109.918V36.1424H108.988L110.349 38.0639L111.665 36.1424H110.912V34.4858H115.056V36.1424H113.915L111.441 39.6873L114.02 43.4012H115.395V45.1306H110.231V43.4012H111.251L109.741 41.2411L108.218 43.4012H109.136V45.1306H104.62V43.4012Z" fill="white"/>
<path fill-rule="evenodd" clip-rule="evenodd" d="M119.615 40.3168V43.4012H120.753V45.1306H115.957V43.4012H117.099V36.1424H115.957V34.4858H120.753V36.1424H119.615V38.5841H122.766V36.1424H121.628V34.4858H126.42V36.1424H125.282V43.4012H126.42V45.1306H121.628V43.4012H122.766V40.3168H119.615Z" fill="white"/>
<path fill-rule="evenodd" clip-rule="evenodd" d="M138.218 39.8233C138.218 43.09 135.909 45.3561 132.712 45.3561C129.515 45.3561 127.206 43.0304 127.206 39.8233C127.206 36.6031 129.485 34.2939 132.801 34.2939C135.968 34.2939 138.218 36.5434 138.218 39.8233ZM135.406 39.7803C135.406 37.5274 134.281 36.1293 132.712 36.1293C131.143 36.1293 130.018 37.5307 130.018 39.7803C130.018 42.0298 131.156 43.4312 132.712 43.4312C134.268 43.4312 135.406 42.0298 135.406 39.7803Z" fill="white"/>
<path fill-rule="evenodd" clip-rule="evenodd" d="M142.823 36.1424V39.8099C142.823 44.087 141.698 45.3559 139.906 45.3559C139.389 45.3559 139.047 45.2797 138.721 45.2201V43.325C138.886 43.4012 139.106 43.4443 139.534 43.4443C140.274 43.4443 140.748 42.9507 140.748 40.2108V36.1424H139.606V34.4858H149.211V36.1424H148.072V43.4012H149.211V45.1306H144.415V43.4012H145.556V36.1424H142.823Z" fill="white"/>
<path fill-rule="evenodd" clip-rule="evenodd" d="M161.114 39.8233C161.114 43.09 158.805 45.3561 155.608 45.3561C152.411 45.3561 150.102 43.0304 150.102 39.8233C150.102 36.6031 152.381 34.2939 155.697 34.2939C158.864 34.2939 161.114 36.5434 161.114 39.8233ZM158.305 39.7803C158.305 37.5274 157.18 36.1293 155.611 36.1293C154.042 36.1293 152.917 37.5307 152.917 39.7803C152.917 42.0298 154.059 43.4312 155.611 43.4312C157.164 43.4312 158.305 42.0298 158.305 39.7803Z" fill="white"/>
<path fill-rule="evenodd" clip-rule="evenodd" d="M165.541 43.4012H166.682V45.1306H161.887V43.4012H163.025V36.1424H161.887V34.4858H170.472V37.7823H168.577V36.1424H165.541V43.4012Z" fill="white"/>
<path fill-rule="evenodd" clip-rule="evenodd" d="M171.004 45.1306V43.4012H172.142V36.1424H171.004V34.4858H175.797V36.1424H174.659V41.2544L177.931 34.4858H181.645V36.1424H180.507V43.4012H181.645V45.1306H176.849V43.4012H177.987V38.4383L174.718 45.1306H171.004Z" fill="white"/>
<path fill-rule="evenodd" clip-rule="evenodd" d="M191.65 43.4012H192.788V45.1306H187.993V43.4012H189.131V40.373C188.332 40.5089 187.667 40.6116 186.927 40.6116C184.825 40.6116 183.464 39.6574 183.464 37.5536V36.139H182.322V34.4825H187.118V36.139H185.98V37.3449C185.98 38.3885 186.408 38.7 187.447 38.7C188.009 38.7 188.542 38.6105 189.134 38.4614V36.1357H187.996V34.4792H192.792V36.1357H191.654V43.4012H191.65Z" fill="white"/>
<path fill-rule="evenodd" clip-rule="evenodd" d="M200.488 41.6553H202.396V45.1306H193.502V43.4012H194.64V36.1424H193.502V34.4858H202.396V37.7823H200.488V36.1424H197.156V38.7497H199.926V40.4957H197.156V43.4012H200.488V41.6553Z" fill="white"/>
<path fill-rule="evenodd" clip-rule="evenodd" d="M208.968 36.1127C207.178 36.1127 206.067 37.4843 206.067 39.7803C206.067 42.0596 207.178 43.4478 208.997 43.4478C210.477 43.4478 211.556 42.5235 212.106 40.7642L213.987 41.6753C213.158 44.0607 211.352 45.3561 208.807 45.3561C205.61 45.3561 203.255 43.0138 203.255 39.8233C203.255 36.6627 205.475 34.2939 208.629 34.2939C210.02 34.2939 211.099 34.7246 211.898 35.6191V34.486H213.484V38.1701H211.898C211.129 36.7521 210.224 36.1127 208.968 36.1127Z" fill="white"/>
<path fill-rule="evenodd" clip-rule="evenodd" d="M218.335 43.4013H219.473V45.1307H214.678V43.4013H215.816V36.1424H214.678V34.4859H219.473V36.1424H218.335V43.4013ZM220.246 43.4013H221.371L218.411 39.4952L221.624 36.1424H220.47V34.4859H224.834V36.1424H223.963L221.062 39.2003L224.348 43.4046H225.486V45.134H220.246V43.4013Z" fill="white"/>
<path fill-rule="evenodd" clip-rule="evenodd" d="M226.035 45.1306V43.4012H227.173V36.1424H226.035V34.4858H230.827V36.1424H229.689V41.2544L232.959 34.4858H236.675V36.1424H235.537V43.4012H236.675V45.1306H231.88V43.4012H233.018V38.4383L229.749 45.1306H226.035Z" fill="white"/>
<path fill-rule="evenodd" clip-rule="evenodd" d="M237.356 45.1308V43.4014H238.494V36.1425H237.356V34.486H242.152V36.1425H241.014V41.2546L244.287 34.486H248V36.1425H246.862V43.4014H248V45.1308H243.204V43.4014H244.342V38.4385L241.073 45.1308H237.356ZM241.78 31.1465C241.856 31.8455 242.283 32.2067 242.892 32.2067C243.5 32.2067 243.915 31.8621 243.987 31.1465H245.484C245.484 32.4717 244.625 33.5617 242.892 33.5617C241.159 33.5617 240.3 32.4717 240.3 31.1465H241.78Z" fill="white"/>
<path fill-rule="evenodd" clip-rule="evenodd" d="M92.4696 53.3483H91.3315V51.6918H96.1238V53.3483H94.9858V60.6072H96.1238V64.5132H94.1273V62.3365H85.661V60.6072H86.8024V53.3483H85.661V51.6918H90.4566V53.3483H89.3153V60.6072H92.4696V53.3483Z" fill="white"/>
<path fill-rule="evenodd" clip-rule="evenodd" d="M103.824 58.8612H105.731V62.3366H96.8344V60.6072H97.9757V53.3483H96.8344V51.6918H105.731V54.9883H103.824V53.3483H100.492V55.9557H103.258V57.7017H100.492V60.6072H103.824V58.8612Z" fill="white"/>
<path fill-rule="evenodd" clip-rule="evenodd" d="M110.113 57.5228V60.6072H111.251V62.3366H106.455V60.6072H107.596V53.3483H106.455V51.6918H111.251V53.3483H110.113V55.79H113.264V53.3483H112.126V51.6918H116.921V53.3483H115.78V60.6072H116.921V62.3366H112.126V60.6072H113.264V57.5228H110.113Z" fill="white"/>
<path fill-rule="evenodd" clip-rule="evenodd" d="M117.408 55.8364V51.6918H126.318V55.8364H124.601V53.3483H123.121V60.6072H124.263V62.3366H119.467V60.6072H120.605V53.3483H119.128V55.8364H117.408Z" fill="white"/>
<path fill-rule="evenodd" clip-rule="evenodd" d="M130.522 60.6072H131.663V62.3366H126.868V60.6072H128.006V53.3483H126.868V51.6918H131.884C134.637 51.6918 135.926 52.6758 135.926 55.0015C135.926 57.3405 134.637 58.4007 131.884 58.4007H130.522V60.6072ZM130.522 56.6548H131.068C132.532 56.6548 133.212 56.2075 133.212 55.0015C133.212 53.7923 132.532 53.345 131.068 53.345H130.522V56.6548Z" fill="white"/>
</svg>
