<svg width="63" height="79" viewBox="0 0 63 79" fill="none" xmlns="http://www.w3.org/2000/svg">
<path d="M51.1464 7.85414C47.5937 4.89494 43.4392 2.77369 38.9824 1.64333C34.5255 0.512978 29.8774 0.401685 25.3731 1.31748C19.5028 2.53248 14.1076 5.45778 9.84585 9.73635C5.58412 14.0149 2.64022 19.4617 1.37347 25.4119C0.106717 31.3621 0.571898 37.5584 2.71224 43.2444C4.85258 48.9305 8.5755 53.8604 13.4266 57.4325C20.2955 62.7249 25.9395 69.4828 29.9615 77.2306C30.1193 77.5161 30.3492 77.7536 30.6273 77.919C30.9055 78.0843 31.2219 78.1713 31.5441 78.1713C31.8671 78.1706 32.184 78.0824 32.4623 77.9158C32.7405 77.7491 32.9699 77.51 33.1268 77.2232L33.9726 75.6739C38.2179 68.2762 43.8813 61.8198 50.6273 56.6873C54.2481 53.7882 57.1838 50.1014 59.2185 45.8979C61.2531 41.6945 62.3351 37.0811 62.3849 32.3969C62.4347 27.7128 61.451 23.0767 59.5062 18.8296C57.5614 14.5824 54.7048 10.8321 51.1464 7.85414Z" fill="#055FB3"/>
<path d="M14.5077 28.0193C15.4718 27.0449 16.6769 26.5577 17.8821 26.5577C18.8462 26.5577 19.5692 26.8013 20.1718 27.2885C20.7744 27.7757 21.1359 28.5065 21.4974 29.6026H23.7872L25.1128 24.2436H22.8231L22.4615 25.8269C21.4974 24.609 20.0513 24 18.0026 24C15.7128 24 13.7846 24.7308 11.8564 26.1923C10.0487 27.6539 8.84359 29.6026 8.24103 32.0385C8.12051 32.7693 8 33.5001 8 34.1091C8 35.5706 8.36154 36.7886 9.20513 37.8848C10.4103 39.3463 12.0974 40.1989 14.5077 40.1989C16.3154 40.1989 18.0026 39.7117 19.5692 38.8591C21.0154 37.8848 22.341 36.545 23.3051 34.8399L20.8949 33.5001C19.4487 36.0578 17.641 37.3976 15.3513 37.3976C14.2667 37.3976 13.5436 37.154 12.941 36.545C12.3385 35.936 12.0974 35.0834 12.0974 33.9873C12.0974 33.3783 12.218 32.6475 12.3385 32.0385C12.8205 30.3334 13.5436 28.9936 14.5077 28.0193Z" fill="white"/>
<path d="M37.7667 30.3331L39.2129 24.2433H26.077L24.6308 30.3331H27.1616L28.0052 26.6793H30.1744L27.6436 37.2755H25.5949L24.9924 39.8332H32.9462L33.5488 37.2755H31.3795L33.9103 26.6793H36.0795L35.2359 30.3331H37.7667Z" fill="white"/>
<path d="M46.082 26.6793L46.5641 24.2434H39.8154L39.2128 26.6793H40.9L38.3692 37.2756H36.682L36.0795 39.8333H48.3718L47.6487 43H50.541L51.8667 37.2756H50.3L52.8308 26.6793H54.3974L55 24.2434H48.2513L47.6487 26.6793H48.9744L46.4436 37.2756H42.1051L44.6359 26.6793H46.082Z" fill="white"/>
</svg>
