<svg width="18" height="18" viewBox="0 0 18 18" fill="none" xmlns="http://www.w3.org/2000/svg">
<path d="M17.4753 13.6575C16.9222 13.1936 13.6784 11.1395 13.1392 11.2338C12.8861 11.2788 12.6925 11.4945 12.1742 12.1128C11.9345 12.4171 11.6713 12.7021 11.387 12.9652C10.866 12.8394 10.3618 12.6524 9.88467 12.4083C8.01362 11.4974 6.50206 9.98538 5.59167 8.11406C5.34756 7.63696 5.16064 7.13271 5.0348 6.61177C5.29788 6.32744 5.58289 6.06423 5.8872 5.82455C6.50482 5.30627 6.72124 5.1139 6.76617 4.85951C6.86046 4.31909 4.80445 1.07655 4.3425 0.523477C4.14886 0.294398 3.97294 0.140625 3.74766 0.140625C3.09459 0.140625 0.140625 3.79322 0.140625 4.26656C0.140625 4.30516 0.203906 8.10773 5.00632 12.9937C9.89227 17.7961 13.6948 17.8594 13.7334 17.8594C14.2068 17.8594 17.8594 14.9054 17.8594 14.2523C17.8594 14.0271 17.7056 13.8511 17.4753 13.6575Z" fill="white"/>
</svg>
