<svg width="16" height="18" viewBox="0 0 16 18" fill="none" xmlns="http://www.w3.org/2000/svg">
<path d="M12.5562 1.77599C11.7305 1.09914 10.7648 0.613944 9.72888 0.355399C8.69295 0.0968538 7.61256 0.0713977 6.5656 0.280866C5.20115 0.558772 3.9471 1.22787 2.95652 2.20651C1.96594 3.18514 1.28168 4.43097 0.987241 5.79196C0.692803 7.15294 0.800927 8.5702 1.29842 9.87077C1.79591 11.1713 2.66125 12.2989 3.78882 13.116C5.3854 14.3265 6.69727 15.8722 7.6321 17.6444C7.6688 17.7097 7.72222 17.764 7.78687 17.8018C7.85152 17.8396 7.92508 17.8596 7.99998 17.8595C8.07504 17.8594 8.14871 17.8392 8.21337 17.8011C8.27804 17.763 8.33137 17.7083 8.36785 17.6427L8.56444 17.2883C9.55119 15.5963 10.8676 14.1195 12.4356 12.9455C13.2772 12.2824 13.9595 11.4392 14.4325 10.4777C14.9054 9.51625 15.1569 8.46105 15.1685 7.38964C15.18 6.31823 14.9514 5.25784 14.4993 4.28639C14.0473 3.31495 13.3833 2.45713 12.5562 1.77599ZM7.99998 10.2658C7.4159 10.2658 6.84495 10.0926 6.35931 9.76811C5.87367 9.44361 5.49516 8.9824 5.27164 8.44279C5.04813 7.90317 4.98965 7.3094 5.10359 6.73655C5.21754 6.1637 5.4988 5.6375 5.9118 5.2245C6.3248 4.8115 6.851 4.53024 7.42385 4.4163C7.9967 4.30235 8.59047 4.36083 9.13009 4.58434C9.6697 4.80786 10.1309 5.18637 10.4554 5.67201C10.7799 6.15765 10.9531 6.7286 10.9531 7.31267C10.9531 8.09589 10.642 8.84703 10.0881 9.40085C9.53433 9.95467 8.78319 10.2658 7.99998 10.2658Z" fill="white"/>
</svg>
