<svg width="33" height="33" viewBox="0 0 33 33" fill="none" xmlns="http://www.w3.org/2000/svg">
<g clip-path="url(#clip0_1533_2850)">
<path d="M7.99579 32.5884C7.78218 32.5156 7.55907 32.4634 7.35812 32.3669C6.40399 31.9048 5.8945 31.1358 5.88817 30.0757C5.87551 27.9744 5.88343 25.8747 5.88343 23.7734C5.88343 19.0027 5.88343 14.2321 5.88343 9.46146C5.88343 7.78106 6.90875 6.75256 8.58599 6.75256C11.7632 6.75256 14.9389 6.75256 18.1162 6.75256C19.7507 6.75256 20.7871 7.79214 20.7887 9.42982C20.7887 16.2385 20.7887 23.0471 20.7887 29.8573C20.7887 31.321 20.14 32.1675 18.7254 32.552C18.708 32.5567 18.6921 32.5757 18.6763 32.5884C15.1161 32.5884 11.556 32.5884 7.99579 32.5884ZM19.795 9.71938C19.795 9.5295 19.7982 9.37444 19.795 9.21937C19.7729 8.39025 19.1384 7.74941 18.3045 7.74783C14.9959 7.7415 11.6873 7.73992 8.37871 7.74783C7.34863 7.751 6.64609 8.72411 6.92932 9.7178C11.2063 9.71938 15.4832 9.71938 19.795 9.71938ZM6.91034 29.6216C6.72996 30.8336 7.37079 31.5931 8.55909 31.5947C11.7332 31.5947 14.9073 31.5947 18.0814 31.5947C19.2982 31.5947 19.9437 30.8415 19.7602 29.6216C15.4785 29.6216 11.1936 29.6216 6.91034 29.6216Z" fill="#055FB3"/>
<path d="M18.5957 0.795071C22.4992 0.87735 26.0056 3.92328 26.6195 7.77618C26.6892 8.21448 26.7208 8.65911 26.7445 9.10215C26.7651 9.4914 26.5721 9.724 26.2635 9.73033C25.955 9.73666 25.7746 9.51039 25.7556 9.12114C25.5958 5.95179 24.0673 3.69859 21.1923 2.37104C20.3378 1.97705 19.4217 1.81091 18.4818 1.78559C18.3995 1.78401 18.314 1.79192 18.2349 1.77452C17.9691 1.71755 17.8109 1.55141 17.8172 1.27609C17.8235 1.00235 17.9881 0.839375 18.2571 0.796653C18.3647 0.779248 18.4818 0.793488 18.5957 0.795071Z" fill="#055FB3"/>
<path d="M24.7617 8.93741C24.7617 9.07191 24.7633 9.13362 24.7617 9.19533C24.7491 9.51179 24.5545 9.72381 24.2744 9.73014C23.9943 9.73489 23.806 9.52761 23.7665 9.21431C23.7 8.69374 23.6684 8.15892 23.5228 7.65891C22.8582 5.38831 20.8012 3.83449 18.4325 3.77278C18.0354 3.7617 17.8138 3.58448 17.8107 3.27752C17.8091 2.95789 18.0433 2.77593 18.4563 2.77909C21.6019 2.80757 24.3598 5.31078 24.7095 8.45323C24.7301 8.63836 24.7507 8.82349 24.7617 8.93741Z" fill="#055FB3"/>
<path d="M18.4848 4.7666C20.7792 4.8204 22.7618 6.82992 22.7744 9.11635C22.776 9.48503 22.602 9.71288 22.3045 9.7287C21.9975 9.74611 21.7966 9.51984 21.7792 9.13692C21.689 7.25556 20.2823 5.8489 18.401 5.75871C18.018 5.73972 17.7934 5.54035 17.8108 5.2318C17.8282 4.93274 18.0513 4.76186 18.4231 4.76344C18.4437 4.7666 18.4642 4.7666 18.4848 4.7666Z" fill="#055FB3"/>
<path d="M13.3646 8.243C13.6747 8.243 13.9865 8.23667 14.2966 8.24458C14.6146 8.25249 14.8235 8.45503 14.8235 8.73668C14.8251 9.01832 14.6162 9.22877 14.2997 9.23194C13.6589 9.23985 13.0165 9.23985 12.3757 9.23194C12.0576 9.22877 11.8503 9.02149 11.8488 8.73984C11.8472 8.45819 12.0545 8.25249 12.3725 8.24458C12.7032 8.23667 13.0339 8.243 13.3646 8.243Z" fill="#055FB3"/>
<path d="M13.3298 31.0976C12.8646 31.0976 12.3978 31.1008 11.9326 31.096C11.5702 31.0929 11.3471 30.8951 11.3519 30.5945C11.3566 30.2922 11.575 30.1071 11.9452 30.1055C12.8772 30.1024 13.8076 30.1024 14.7396 30.1055C15.1019 30.1071 15.325 30.3065 15.3219 30.6071C15.3171 30.9062 15.094 31.0945 14.7269 31.0976C14.2617 31.0992 13.795 31.0976 13.3298 31.0976Z" fill="#055FB3"/>
</g>
<defs>
<clipPath id="clip0_1533_2850">
<rect width="32.1" height="32.1" fill="white" transform="translate(0.42395 0.788086)"/>
</clipPath>
</defs>
</svg>
