<svg width="33" height="33" viewBox="0 0 33 33" fill="none" xmlns="http://www.w3.org/2000/svg">
<g clip-path="url(#clip0_1533_2871)">
<path d="M11.2292 16.0899C10.996 15.8693 10.6851 15.5899 10.3889 15.2958C9.53593 14.4491 8.6851 13.5983 7.83847 12.7454C7.50234 12.4071 7.50444 12.1508 7.84477 11.8105C8.33426 11.3168 8.82796 10.8294 9.31955 10.3357C9.07796 9.97229 8.4351 9.68868 8.9246 9.18028C9.43509 8.65298 9.73341 9.30843 10.1095 9.55843C10.6011 9.06264 11.0863 8.56474 11.5779 8.07525C11.9183 7.73702 12.1725 7.73702 12.5128 8.07735C13.5758 9.13617 14.6346 10.1992 15.6955 11.2601C15.7796 11.3441 15.8678 11.4261 15.935 11.487C16.4707 10.9513 16.9917 10.4324 17.5443 9.87986C17.0947 9.43449 16.6178 8.9639 16.143 8.49122C15.7249 8.07315 15.7228 7.85467 16.1367 7.44081C18.3972 5.17822 20.6598 2.91564 22.9224 0.653058C23.311 0.264406 23.5442 0.262306 23.9287 0.646756C25.1534 1.86943 26.3782 3.09421 27.603 4.32109C27.9853 4.70554 27.9853 4.94083 27.5967 5.32949C25.3278 7.60047 23.0589 9.87145 20.7879 12.1403C20.3993 12.5269 20.1745 12.5248 19.7837 12.1319C19.3089 11.6571 18.8342 11.1803 18.3867 10.7286C17.8489 11.2685 17.3258 11.7958 16.788 12.3378C16.8279 12.3798 16.9077 12.4681 16.9917 12.5521C18.0211 13.5815 19.0505 14.6109 20.08 15.6424C20.5505 16.113 20.5484 16.3126 20.0673 16.7916C19.6157 17.2411 19.164 17.6907 18.6535 18.197C18.9476 18.4701 19.206 18.739 19.5001 18.9659C19.58 19.0289 19.7627 18.9911 19.8888 18.9596C20.7858 18.7411 21.6283 19.2243 21.8677 20.1067C22.103 20.9722 21.6072 21.8608 20.7354 22.0982C20.1388 22.2621 19.5905 22.1339 19.1472 21.697C18.7123 21.2684 18.5548 20.7348 18.7354 20.1508C18.8237 19.8651 18.748 19.7075 18.5506 19.5289C18.3489 19.3462 18.1766 19.1277 17.9644 18.8903C17.456 19.4008 16.9917 19.8672 16.5275 20.3335C16.0842 20.7768 15.8699 20.7768 15.4266 20.3356C14.3111 19.2201 13.1956 18.1067 12.1115 17.0226C11.58 17.5542 11.0548 18.0815 10.4918 18.6424C10.9309 19.073 11.4183 19.5478 11.9015 20.0289C12.2901 20.4176 12.2901 20.6445 11.9015 21.0331C9.63257 23.3041 7.36369 25.5751 5.0927 27.844C4.71245 28.2242 4.46665 28.2221 4.08431 27.8398C2.85953 26.615 1.63475 25.3902 0.409974 24.1654C0.0360276 23.7915 0.033927 23.552 0.403671 23.1822C2.67886 20.9029 4.95614 18.6235 7.23553 16.3462C7.60318 15.9785 7.85318 15.9764 8.21872 16.3399C8.69561 16.8147 9.16619 17.2958 9.59265 17.7243C10.1221 17.1928 10.6452 16.6718 11.2292 16.0899ZM24.2018 7.1593C23.1598 6.11729 22.1156 5.07528 21.0988 4.05849C20.5799 4.57739 20.0526 5.1047 19.5589 5.59629C20.5862 6.62569 21.6325 7.674 22.6598 8.7013C23.1556 8.2055 23.6766 7.6866 24.2018 7.1593ZM21.7963 9.55003C20.7669 8.52063 19.7165 7.47232 18.706 6.46182C18.2144 6.95342 17.6955 7.47232 17.2228 7.945C18.2438 8.9723 19.29 10.0227 20.3026 11.0395C20.7984 10.5437 21.3194 10.0248 21.7963 9.55003ZM10.8216 20.5373C9.78803 19.5058 8.73762 18.4596 7.71452 17.4407C7.22083 17.9344 6.69983 18.4554 6.20403 18.9491C7.23553 19.9785 8.28385 21.0268 9.30695 22.0499C9.80484 21.552 10.3258 21.031 10.8216 20.5373ZM21.8993 3.24967C22.9224 4.27487 23.9707 5.32318 25.0043 6.35889C25.5106 5.85049 26.0316 5.32948 26.5253 4.83369C25.5001 3.80849 24.4518 2.76018 23.4181 1.72657C22.9203 2.22447 22.4014 2.74547 21.8993 3.24967ZM6.93722 24.4364C7.45823 23.9133 7.97712 23.3923 8.45611 22.9112C7.42251 21.8797 6.3742 20.8314 5.3406 19.7978C4.84901 20.2894 4.328 20.8104 3.8175 21.3209C4.84691 22.3461 5.89101 23.3902 6.93722 24.4364ZM1.48559 23.6675C2.5297 24.7116 3.57171 25.7558 4.5864 26.7705C5.0906 26.2663 5.6116 25.7452 6.1137 25.2453C5.0822 24.2138 4.03179 23.1654 3.00869 22.1444C2.51289 22.6402 1.99189 23.1612 1.48559 23.6675ZM20.2774 19.9512C19.9623 19.9554 19.7144 20.2033 19.7123 20.5184C19.7081 20.8482 19.9665 21.1066 20.2963 21.1024C20.6115 21.0982 20.8594 20.8503 20.8615 20.5352C20.8657 20.2054 20.6073 19.9449 20.2774 19.9512Z" fill="#055FB3"/>
<path d="M20.5421 32.138C20.5211 32.138 20.4328 32.1401 20.3446 32.138C19.9749 32.1317 19.7522 31.9406 19.7438 31.6212C19.7354 31.3019 19.9538 31.1086 20.3194 31.0771C20.9559 31.0225 21.5988 30.9994 22.2227 30.8839C26.6113 30.0834 30.105 26.4448 30.7226 22.0457C30.7899 21.5667 30.813 21.0814 30.8424 20.5982C30.8655 20.2075 31.0546 19.9659 31.3676 19.9638C31.6974 19.9596 31.918 20.2117 31.9012 20.6171C31.6974 25.3797 29.4516 28.8419 25.2248 31.0099C23.7857 31.7473 22.2248 32.075 20.5421 32.138Z" fill="#055FB3"/>
<path d="M28.5861 20.7452C28.46 25.0036 25.2248 28.4216 20.9727 28.7766C20.7647 28.7935 20.5546 28.8145 20.3466 28.8145C19.9601 28.8145 19.729 28.6065 19.7332 28.2766C19.7374 27.9573 19.9454 27.7683 20.3277 27.7598C21.8172 27.7262 23.2038 27.3418 24.4285 26.4783C26.4096 25.0813 27.3991 23.138 27.523 20.7326C27.5272 20.6549 27.5251 20.5771 27.5293 20.5015C27.5525 20.1822 27.7583 19.9658 28.0419 19.9616C28.3361 19.9574 28.5629 20.1864 28.584 20.5141C28.5903 20.5919 28.5861 20.6675 28.5861 20.7452Z" fill="#055FB3"/>
<path d="M20.4665 25.6066C20.2648 25.5037 20.0043 25.4469 19.874 25.2852C19.5967 24.9406 19.8698 24.4911 20.353 24.4701C21.6597 24.4154 22.6555 23.7915 23.4349 22.7852C23.9244 22.1508 24.2059 21.4302 24.2311 20.6193C24.2437 20.2327 24.4622 20.0037 24.7879 20.0205C25.103 20.0352 25.2858 20.26 25.29 20.634C25.3047 22.8566 23.416 25.0646 21.166 25.449C20.9497 25.4869 20.7291 25.5079 20.5127 25.5373C20.4959 25.5625 20.4812 25.5856 20.4665 25.6066Z" fill="#055FB3"/>
</g>
<defs>
<clipPath id="clip0_1533_2871">
<rect width="32.1" height="32.1" fill="white" transform="translate(0.12793 0.359985)"/>
</clipPath>
</defs>
</svg>
