<svg width="33" height="33" viewBox="0 0 33 33" fill="none" xmlns="http://www.w3.org/2000/svg">
<path d="M7.61256 14.9529C6.30326 12.6655 6.91847 10.6148 7.97538 8.62721C8.10158 8.39059 8.45078 7.66732 8.98712 7.88817C9.55501 8.09324 9.19731 8.93914 9.07961 9.11622C8.92186 9.71566 8.60636 10.2836 8.38552 10.8672C8.25932 11.23 8.21199 11.6086 8.11735 11.9714C13.6385 9.44749 19.0808 9.52637 24.6019 11.9399C24.5546 11.6875 24.523 11.3247 24.4126 11.0092C23.3557 8.04354 21.7625 5.40917 19.6013 3.13762C17.8819 1.3393 14.8847 1.35508 13.1495 3.13762C12.692 3.61086 12.2819 4.13142 11.8559 4.62043C11.572 4.96748 11.2407 5.26719 10.799 4.90438C10.4047 4.57311 10.5624 4.22607 10.8306 3.86325C11.9979 2.33311 13.2757 0.960708 15.3106 0.629439C17.4875 0.266621 19.3174 0.913384 20.7844 2.5224C22.8351 4.77818 24.3968 7.34946 25.4853 10.2047C26.1005 11.7821 25.9901 13.3438 25.154 14.9529C27.1416 15.1264 27.9304 16.5777 28.7349 18.0447C29.634 19.701 30.5963 21.3258 31.5428 22.9664C32.6943 24.9698 32.0949 27.0678 30.0599 28.2036C29.0661 28.7557 28.0881 29.292 27.0943 29.8284C26.4318 30.1912 25.8166 30.5225 25.3906 31.2481C25.1382 31.674 24.3968 32.0053 23.8763 32.0211C18.8599 32.0842 13.8436 32.0526 8.81144 32.0526C8.07002 32.0526 7.53369 31.6898 7.10777 31.0746C6.87115 30.7275 6.55565 30.3805 6.20861 30.1754C5.00973 29.4656 3.77931 28.8188 2.56466 28.1405C0.624373 27.0678 0.0249293 24.954 1.12916 23.0137C2.31226 20.9315 3.51114 18.865 4.67846 16.7827C5.32523 15.71 6.28749 15.1579 7.61256 14.9529ZM11.9033 19.1174C10.7517 18.0131 9.75791 17.0667 8.74833 16.1202C8.70101 16.0729 8.60636 16.0098 8.54326 16.0098C7.62833 16.2622 6.53988 16.1991 5.97199 17.1613C4.66269 19.4013 3.36917 21.6571 2.10719 23.9287C1.57085 24.9067 1.85479 26.1687 2.75395 26.7365C4.04747 27.5568 5.41987 28.2667 6.88692 29.087C6.88692 28.6926 6.88692 28.4402 6.88692 28.1878C6.88692 25.8532 6.88692 23.5185 6.88692 21.1839C6.88692 19.8903 7.64411 19.1332 8.93763 19.1174C9.86834 19.1174 10.7833 19.1174 11.9033 19.1174ZM25.8481 29.0081C26.0059 28.9608 26.0847 28.9608 26.1478 28.9292C27.2994 28.2982 28.4509 27.683 29.5867 27.0205C30.9118 26.2475 31.2588 25.0171 30.5016 23.6763C29.3501 21.6098 28.1197 19.5906 27.0154 17.5084C26.4002 16.3726 25.3275 16.2937 24.3022 16.0255C24.2075 15.994 24.0498 16.0886 23.9709 16.1675C22.9929 17.0982 22.0149 18.0289 21.0526 18.9596C20.7844 19.1174 21.1315 19.0858 21.1472 19.0858C22.0464 19.1016 22.9298 19.1016 23.8289 19.1174C25.1067 19.1332 25.8639 19.8903 25.8797 21.1839C25.8954 22.0515 25.8797 22.9191 25.8797 23.7867C25.8481 25.5219 25.8481 27.2413 25.8481 29.0081ZM11.6509 11.9241C12.4396 13.3912 13.0233 14.7793 13.8909 15.9782C14.9636 17.4768 16.9038 17.6661 18.292 16.5619C19.7748 15.3788 20.3427 13.6751 20.8948 11.8295C17.8188 11.372 14.8847 11.1985 11.6509 11.9241ZM22.1253 12.1607C22.0149 12.5236 21.9518 12.7286 21.8887 12.9179C21.3839 14.4481 20.7529 15.9151 19.6013 17.0824C17.7084 18.9912 14.8847 18.9912 13.1179 16.972C12.4238 16.1833 11.9348 15.1895 11.43 14.243C11.0988 13.6278 10.9095 12.9495 10.594 12.1607C10.0103 12.5236 9.44242 12.8233 8.96918 13.2019C8.49594 13.5805 8.48017 14.0379 8.95341 14.4796C10.452 15.9151 11.9348 17.3664 13.465 18.7703C13.67 18.9596 14.0171 19.0701 14.301 19.0701C15.7207 19.1016 17.1405 19.1016 18.5602 19.0701C18.8284 19.0701 19.1439 18.9754 19.3332 18.8019C20.8475 17.3822 22.3461 15.9467 23.8447 14.5112C24.3653 14.0064 24.318 13.5174 23.7974 13.123C23.2768 12.7917 22.7247 12.5236 22.1253 12.1607Z" fill="#055FB3"/>
<rect x="19.8812" y="14.7723" width="2.96448" height="2.2531" rx="1" transform="rotate(-62.4332 19.8812 14.7723)" fill="#055FB3"/>
</svg>
