<svg width="33" height="33" viewBox="0 0 33 33" fill="none" xmlns="http://www.w3.org/2000/svg">
<path d="M1.00629 13.1764C0.872825 13.8988 0.794319 14.6212 0.692261 15.3436V17.2203C0.778618 17.8249 0.833578 18.4374 0.943486 19.042C1.84631 23.8476 4.39776 27.5146 8.55859 30.0666C10.7018 31.3779 13.0491 32.0925 15.5613 32.2731C15.6477 32.2809 15.7262 32.3123 15.8047 32.328H17.5004C17.6103 32.3045 17.7281 32.2888 17.838 32.2731C18.8429 32.1082 19.8635 32.0061 20.8527 31.7627C22.8703 31.268 24.6995 30.3414 26.3638 29.0929C26.5129 28.983 26.6307 28.9437 26.8191 28.9987C27.6277 29.2499 28.3578 29.0693 28.9466 28.4726C29.5433 27.8837 29.7003 27.1534 29.4805 26.3368C29.4412 26.2111 29.4805 26.0305 29.5511 25.9206C29.8966 25.3709 30.2891 24.8527 30.611 24.2952C32.346 21.3113 33.0525 18.0919 32.7071 14.6683C32.3381 10.9856 30.87 7.75048 28.2479 5.12783C23.8908 0.769828 18.6388 -0.627873 12.6645 0.722714C9.91674 1.34304 7.60866 2.80356 5.60676 4.75877C5.14357 5.2142 5.13571 5.42621 5.59105 5.88164C9.11598 9.41516 12.6488 12.9408 16.1815 16.4743C16.2679 16.5529 16.3464 16.6392 16.4406 16.702C16.6683 16.8434 16.8959 16.8355 17.1001 16.6471C17.2963 16.4743 17.3277 16.1759 17.1629 15.9639C17.0216 15.7833 16.8567 15.6263 16.6918 15.4614C16.3464 15.1159 16.001 14.7782 15.632 14.4092C16.4485 14.0166 17.21 14.0244 17.9165 14.4956C18.6388 14.9746 18.9607 15.6813 18.8507 16.545C18.7408 17.3773 18.2698 17.9741 17.4769 18.2646C16.1109 18.7593 14.737 17.8563 14.6114 16.3958C14.5722 15.9404 14.3759 15.7205 14.0226 15.7519C13.685 15.7833 13.5202 16.0189 13.5437 16.4665C13.6693 18.7201 16.1658 20.2434 18.2776 19.0734C19.7065 18.2803 20.3424 16.4822 19.6908 15.0295C18.9606 13.4198 17.1864 12.6503 15.6006 13.2549C15.3415 13.357 15.0981 13.4905 14.9254 13.569C14.1482 12.8073 13.3946 12.0771 12.6488 11.339C14.58 9.66643 17.5397 9.3759 19.8164 10.6401C22.2187 11.975 23.5062 14.6133 23.0587 17.3538C22.6112 20.0628 20.5308 21.8688 18.6937 22.3478C18.2776 21.5704 17.6418 21.0993 16.7232 21.0993C15.8047 21.1072 15.1767 21.5861 14.7606 22.3635C12.4132 21.7432 10.4506 19.2383 10.3328 16.7492C10.2779 15.6184 10.4663 14.5505 10.9373 13.5219C11.0943 13.1685 10.9687 12.8623 10.6625 12.7445C10.3642 12.6267 10.1052 12.7681 9.94814 13.1214C9.53991 14.0166 9.29655 14.951 9.25729 15.9325C9.12383 19.3247 11.1257 22.2614 14.3445 23.3608C14.5329 23.4236 14.6271 23.51 14.6664 23.7141C14.8548 24.6642 15.7419 25.3631 16.7232 25.3631C17.6967 25.3631 18.5838 24.6721 18.7801 23.7141C18.8193 23.5021 18.9135 23.4157 19.102 23.3529C22.8781 22.0651 24.9507 18.2097 23.9458 14.3542C22.7447 9.71354 17.4455 7.39713 13.2219 9.66643C12.7351 9.93341 12.2798 10.2711 11.848 10.5459L9.61057 8.30799C11.3456 6.7611 13.3867 5.83453 15.7262 5.62252C18.1834 5.3948 20.4523 5.95231 22.5327 7.2872C22.7132 7.40498 22.7525 7.49921 22.6975 7.71122C22.2736 9.26596 23.7181 10.7186 25.2726 10.3025C25.5081 10.2396 25.6023 10.2946 25.72 10.4831C26.9369 12.4069 27.51 14.5034 27.4001 16.7884C27.3216 18.4531 26.8898 20.0078 26.0812 21.4448C24.7309 23.8319 22.7603 25.4966 20.1618 26.3917C17.9401 27.1534 15.6869 27.1691 13.4574 26.4467C10.8588 25.5986 8.8569 23.9811 7.48305 21.6176C6.08564 19.1991 5.70881 16.6078 6.30545 13.8831C6.57237 12.6581 7.07482 11.5274 7.74212 10.4674C7.96194 10.1297 7.89913 9.80777 7.62436 9.64287C7.35744 9.47798 7.05911 9.5722 6.855 9.88629C5.37123 12.2027 4.76674 14.739 5.03366 17.4716C5.21422 19.309 5.80302 21.0129 6.80789 22.5677C8.44082 25.0883 10.7018 26.7843 13.5908 27.601C15.844 28.237 18.0971 28.1899 20.3188 27.4753C22.776 26.6823 24.7701 25.2217 26.2853 23.1173C27.7769 21.0443 28.4992 18.7122 28.4913 16.1681C28.4835 13.8752 27.8319 11.763 26.5679 9.84703C26.4501 9.66643 26.4344 9.54865 26.56 9.35234C27.1017 8.52 26.9604 7.43639 26.2617 6.73754C25.5709 6.04654 24.4875 5.9052 23.671 6.4313C23.4512 6.57264 23.3177 6.54123 23.1215 6.41559C21.6063 5.41836 19.9498 4.80588 18.1442 4.60173C15.2002 4.27193 12.4996 4.92367 10.0659 6.6119C9.63412 6.91029 9.22589 7.24794 8.86476 7.52276C8.10325 6.76895 7.35744 6.02298 6.61948 5.28487C12.0835 -0.125329 21.622 -0.117477 27.3765 5.75601C33.4136 11.92 32.4559 20.5339 28.6719 25.2374C27.6905 24.5936 26.6229 24.8213 25.987 25.418C25.6572 25.7243 25.4374 26.1012 25.3511 26.5409C25.2333 27.1534 25.3511 27.7266 25.72 28.237C25.6572 28.2841 25.618 28.3234 25.5787 28.3469C25.0684 28.6767 24.5738 29.0222 24.0478 29.3206C21.1196 30.9617 17.9793 31.5899 14.6585 31.1031C10.0738 30.4278 6.50172 28.1035 4.04448 24.1852C1.61864 20.3141 1.15545 16.1367 2.46651 11.763C2.82764 10.5537 3.37717 9.43086 4.02877 8.3551C4.22504 8.02531 4.15439 7.71907 3.87962 7.56203C3.6127 7.41283 3.31437 7.49135 3.12595 7.78974C2.09752 9.45442 1.36741 11.2447 1.00629 13.1764Z" fill="#055FB3"/>
</svg>
